<?xml version="1.0" standalone="no"?>
<svg xmlns:xlink="http://www.w3.org/1999/xlink" id="wave" style="transform:rotate(180deg); transition: 0.3s" viewBox="0 0 1440 360" version="1.1" xmlns="http://www.w3.org/2000/svg"><defs><linearGradient id="sw-gradient-0" x1="0" x2="0" y1="1" y2="0"><stop stop-color="rgba(139, 0, 0, 1)" offset="0%"/><stop stop-color="rgba(139, 0, 0, 1)" offset="100%"/></linearGradient></defs><path style="transform:translate(0, 0px); opacity:1" fill="url(#sw-gradient-0)" d="M0,144L80,156C160,168,320,192,480,174C640,156,800,96,960,66C1120,36,1280,36,1440,48C1600,60,1760,84,1920,126C2080,168,2240,228,2400,216C2560,204,2720,120,2880,102C3040,84,3200,132,3360,144C3520,156,3680,132,3840,120C4000,108,4160,108,4320,138C4480,168,4640,228,4800,222C4960,216,5120,144,5280,96C5440,48,5600,24,5760,66C5920,108,6080,216,6240,264C6400,312,6560,300,6720,252C6880,204,7040,120,7200,72C7360,24,7520,12,7680,60C7840,108,8000,216,8160,240C8320,264,8480,204,8640,180C8800,156,8960,168,9120,186C9280,204,9440,228,9600,246C9760,264,9920,276,10080,258C10240,240,10400,192,10560,174C10720,156,10880,168,11040,150C11200,132,11360,84,11440,60L11520,36L11520,360L11440,360C11360,360,11200,360,11040,360C10880,360,10720,360,10560,360C10400,360,10240,360,10080,360C9920,360,9760,360,9600,360C9440,360,9280,360,9120,360C8960,360,8800,360,8640,360C8480,360,8320,360,8160,360C8000,360,7840,360,7680,360C7520,360,7360,360,7200,360C7040,360,6880,360,6720,360C6560,360,6400,360,6240,360C6080,360,5920,360,5760,360C5600,360,5440,360,5280,360C5120,360,4960,360,4800,360C4640,360,4480,360,4320,360C4160,360,4000,360,3840,360C3680,360,3520,360,3360,360C3200,360,3040,360,2880,360C2720,360,2560,360,2400,360C2240,360,2080,360,1920,360C1760,360,1600,360,1440,360C1280,360,1120,360,960,360C800,360,640,360,480,360C320,360,160,360,80,360L0,360Z"/></svg>